<svg id="Layer_1" data-name="Layer 1" xmlns="http://www.w3.org/2000/svg" viewBox="0 0 357.31 391.34"><defs><style>.cls-1{fill:#FE5000;}</style></defs><title>logo_orange</title><path class="cls-1" d="M467.57,266.15a21.22,21.22,0,1,0,21.22,21.22A21.22,21.22,0,0,0,467.57,266.15Z" transform="translate(-173.97 -94.54)"/><path class="cls-1" d="M298.66,266.15A21.22,21.22,0,0,0,288.42,306l28.83-28.82A21.21,21.21,0,0,0,298.66,266.15Z" transform="translate(-173.97 -94.54)"/><path class="cls-1" d="M384.11,266.15A21.22,21.22,0,0,0,373.87,306l28.83-28.82A21.21,21.21,0,0,0,384.11,266.15Z" transform="translate(-173.97 -94.54)"/><path class="cls-1" d="M494.58,230.47c-36.15-20.89-81.77-25.37-117.93-46.24s-63-58.28-99.26-79.16c0,0,0,0-.05,0C230.76,75.68,172.91,111.65,174,164.77c.84,41.76,18.83,83.54,18.83,125.3S174.93,373.77,174,415.61c-1.17,52.31,54.61,87.93,101.05,61.12l.14-.08c36.94-21.27,65-59.34,101.91-80.63,35.38-20.4,80.33-22.89,115-44.43C541.17,321.12,546.51,260.47,494.58,230.47Zm-243.27,36.4H251c-11.71-.22-19.4,4.26-19.4,11.85v37.76a9.78,9.78,0,1,1-19.55,0V278.71a31.4,31.4,0,0,1,31.4-31.4c2.38,0,4.92.05,7.61,0h.3a9.78,9.78,0,0,1,0,19.56Zm76.27,59.83H297.77a39.33,39.33,0,1,1,38.88-49.53,9.87,9.87,0,0,1-2.19,10.6L315.21,307h12.37a9.85,9.85,0,0,1,0,19.69Zm85.44,0h-29.8a39.33,39.33,0,1,1,38.88-49.53,9.87,9.87,0,0,1-2.19,10.6L400.66,307H413a9.85,9.85,0,1,1,0,19.69Zm93.88-9.85a9.84,9.84,0,0,1-18.81,4.07,39.33,39.33,0,1,1,18.77-35.17c0,.53,0,1.06,0,1.62Z" transform="translate(-173.97 -94.54)"/></svg>